<svg width="38" height="38" viewBox="0 0 38 38" fill="none" xmlns="http://www.w3.org/2000/svg">
<path d="M19 0C8.51254 0 0 8.51254 0 19C0 29.5102 8.51254 38 19 38C29.5102 38 38 29.4875 38 19C38 8.51254 29.5102 0 19 0ZM27.6941 27.4217C27.3763 27.9893 26.6499 28.1481 26.1051 27.8076C21.6105 25.0836 16.0036 24.4707 9.37515 25.9916C8.73955 26.1051 8.10394 25.7192 7.96774 25.0836C7.92234 24.448 8.30824 23.8124 8.87575 23.6762C16.1398 22.0191 22.405 22.7228 27.399 25.7873C27.9892 26.1278 28.1708 26.8542 27.8076 27.4217H27.6941ZM30.0777 22.2461C29.6237 22.9271 28.7157 23.1541 28.0346 22.7455C22.9271 19.5675 15.141 18.6595 9.10275 20.5209C8.37634 20.7479 7.51374 20.2939 7.28674 19.5448C7.05974 18.7957 7.51374 17.9558 8.33094 17.7288C15.2318 15.6858 23.8124 16.7073 29.6691 20.2258C30.3501 20.6798 30.5771 21.5878 30.1231 22.2688L30.0777 22.2461ZM30.3047 16.8435C24.1756 13.2115 14.0514 12.871 8.19474 14.6416C7.28674 14.9367 6.33333 14.4146 6.03823 13.4612C5.74313 12.5532 6.26523 11.5317 7.21864 11.2366C13.9379 9.19355 25.1063 9.60215 32.1434 13.779C32.9833 14.2784 33.2784 15.368 32.7563 16.2079C32.3023 17.0705 31.1673 17.3429 30.3501 16.8435H30.3047Z" fill="white"/>
</svg>
